<svg id="Layer_1" data-name="Layer 1" xmlns="http://www.w3.org/2000/svg" viewBox="0 0 111.37 95.33"><defs><style>.cls-1{fill:#f9a03f;}.cls-2{fill:#eafdf8;}</style></defs><title>chatterbot</title><rect class="cls-1" x="30.73" y="7.83" width="3" height="27.13" transform="translate(-3.9 7.56) rotate(-12.63)"/><rect class="cls-1" x="78.33" y="7.92" width="3" height="27.14"/><rect class="cls-1" y="29.78" width="111.37" height="65.55"/><circle class="cls-2" cx="33.3" cy="60.09" r="10.91"/><circle class="cls-2" cx="77.71" cy="60.08" r="11.28"/><path class="cls-2" d="M75.45,81.94a2.82,2.82,0,0,0-2.82-2.82H38.75a2.82,2.82,0,0,0-2.82,2.82h0a2.82,2.82,0,0,0,2.82,2.82H72.63a2.82,2.82,0,0,0,2.82-2.82h0Z"/><circle class="cls-2" cx="28.65" cy="5.41" r="5.11" transform="translate(-0.49 6.41) rotate(-12.66)"/><circle class="cls-2" cx="79.83" cy="5.11" r="5.11"/></svg>