<svg id="Layer_1" data-name="Layer 1" xmlns="http://www.w3.org/2000/svg" viewBox="0 0 588.8 499.2"><defs><style>.cls-1{fill:#393d3f;}</style></defs><title>github</title><path class="cls-1" d="M421.76,361.89c-23,0-41.6,25.82-41.6,57.57s18.62,57.63,41.6,57.63,41.6-25.82,41.6-57.63S444.74,361.89,421.76,361.89ZM566.59,212c4.77-11.68,5-78-20.32-141.63,0,0-58,6.37-145.63,66.56-18.4-5.12-49.54-7.62-80.61-7.62s-62.24,2.5-80.64,7.62C151.68,76.77,93.73,70.4,93.73,70.4,68.48,134,68.74,200.35,73.44,212,43.74,244.29,25.6,283,25.6,335.9c0,230,190.82,233.63,238.94,233.63,10.94,0,32.58.06,55.49,0.06s44.54-.06,55.42-0.06c48.19,0,238.94-3.68,238.94-233.63,0-52.86-18.11-91.62-47.81-123.87h0ZM320.9,541.28H319.1c-120.67,0-214.69-14.37-214.69-131.68,0-28.13,9.92-54.18,33.5-75.81,39.26-36.06,105.76-17,181.18-17h1.79c75.42,0,142-19.07,181.25,17,23.52,21.63,33.44,47.68,33.44,75.81,0,117.31-94,131.68-214.69,131.68h0ZM218.27,361.89c-23,0-41.6,25.82-41.6,57.57s18.62,57.63,41.6,57.63,41.63-25.82,41.63-57.63-18.62-57.57-41.63-57.57h0Z" transform="translate(-25.6 -70.4)"/></svg>